<svg xmlns="http://www.w3.org/2000/svg" version="1.1" xmlns:xlink="http://www.w3.org/1999/xlink" xmlns:svgjs="http://svgjs.dev/svgjs" width="1440" height="560" preserveAspectRatio="none" viewBox="0 0 1440 560"><g mask="url(&quot;#SvgjsMask1017&quot;)" fill="none"><rect width="1440" height="560" x="0" y="0" fill="rgba(67, 139, 239, 1)"></rect><path d="M897.067,236.09C948.602,238.536,999.675,215.607,1026.138,171.317C1053.238,125.96,1051.627,68.555,1024.123,23.442C997.679,-19.932,947.798,-43.022,897.067,-40.388C850.52,-37.971,813.325,-5.357,790.98,35.548C769.658,74.581,766.808,120.68,787.606,159.995C809.877,202.095,849.493,233.832,897.067,236.09" fill="rgba(28, 83, 142, 0.4)" class="triangle-float3"></path><path d="M344.22349204900854 310.9709763371431L264.3921762984591 396.57958142813294 429.8320971399984 390.80229208769254z" fill="rgba(28, 83, 142, 0.4)" class="triangle-float1"></path><path d="M810.389,104.502C835.506,104.135,863.005,101.633,876.444,80.41C890.607,58.043,885.274,29.602,872.502,6.412C859.187,-17.765,837.978,-40.356,810.389,-39.527C783.711,-38.725,767.64,-13.226,754.424,9.962C741.39,32.831,727.494,59.738,740.903,82.39C754.173,104.808,784.341,104.883,810.389,104.502" fill="rgba(28, 83, 142, 0.4)" class="triangle-float3"></path><path d="M-24.438,31.092C-5.237,30.289,13.663,22.673,23.108,5.936C32.413,-10.552,28.761,-30.372,19.598,-46.939C10.073,-64.159,-4.808,-78.643,-24.438,-80.027C-46.537,-81.585,-69.204,-72.934,-80.729,-54.014C-92.671,-34.41,-92.075,-8.922,-79.412,10.224C-67.823,27.746,-45.428,31.97,-24.438,31.092" fill="rgba(28, 83, 142, 0.4)" class="triangle-float1"></path><path d="M738.084,382.2C762.64,381.384,778.912,359.721,791.086,338.379C803.111,317.298,813.265,292.394,801.382,271.233C789.328,249.767,762.671,242.729,738.084,243.991C715.78,245.136,696.702,258.104,685.126,277.203C673.045,297.135,668.115,321.305,678.611,342.115C690.15,364.993,712.475,383.051,738.084,382.2" fill="rgba(28, 83, 142, 0.4)" class="triangle-float3"></path><path d="M479.8683970030633 448.7707663555721L532.5094861521574 523.9500328965846 607.6887526931698 471.3089437474906 555.0476635440758 396.1296772064781z" fill="rgba(28, 83, 142, 0.4)" class="triangle-float1"></path><path d="M1000.8322468323473 457.7052395764305L1132.377009553391 500.44672392078166 1175.1184938977422 368.901961199738 1043.5737311766986 326.16047685538683z" fill="rgba(28, 83, 142, 0.4)" class="triangle-float1"></path><path d="M573.851,337.228C621.93,338.182,668.575,317.738,694.271,277.091C721.821,233.512,731.435,176.004,702.934,133.041C676.387,93.025,621.848,94.066,573.851,95.57C529.472,96.961,481.873,103.24,458.059,140.714C432.804,180.456,437.53,231.902,461.435,272.471C484.965,312.404,527.51,336.308,573.851,337.228" fill="rgba(28, 83, 142, 0.4)" class="triangle-float3"></path><path d="M750.728,606.468C803.871,608.229,863.794,605.727,892.417,560.917C922.561,513.726,910.078,451.686,879.607,404.705C851.783,361.805,801.861,342.652,750.728,342.459C699.198,342.265,646.751,359.591,620.153,403.726C592.792,449.126,595.721,507.47,624.423,552.035C651.029,593.346,701.618,604.84,750.728,606.468" fill="rgba(28, 83, 142, 0.4)" class="triangle-float1"></path><path d="M1209.487,574.434C1234.264,575.701,1257.144,561.047,1269.531,539.552C1281.9,518.088,1282.01,491.619,1269.545,470.211C1257.158,448.937,1233.999,434.151,1209.487,436.429C1187.653,438.458,1176.131,460.335,1166.08,479.824C1157.152,497.135,1151.092,516.207,1159.214,533.911C1168.834,554.878,1186.448,573.256,1209.487,574.434" fill="rgba(28, 83, 142, 0.4)" class="triangle-float2"></path><path d="M894.363,477.35C944.852,475.229,975.068,427.1,999.74,382.998C1023.602,340.344,1044.499,291.815,1022.602,248.119C998.791,200.602,947.498,171.474,894.363,172.713C843.129,173.908,800.935,209.05,776.08,253.867C752.043,297.21,749.263,348.741,772.448,392.546C797.268,439.44,841.353,479.577,894.363,477.35" fill="rgba(28, 83, 142, 0.4)" class="triangle-float1"></path><path d="M384.94001635778193 285.93028395689527L346.5833806848984 372.08069820143805 494.9873198881544 386.540444588492z" fill="rgba(28, 83, 142, 0.4)" class="triangle-float3"></path></g><defs><mask id="SvgjsMask1017"><rect width="1440" height="560" fill="#ffffff"></rect></mask><style>
                @keyframes float1 {
                    0%{transform: translate(0, 0)}
                    50%{transform: translate(-10px, 0)}
                    100%{transform: translate(0, 0)}
                }

                .triangle-float1 {
                    animation: float1 5s infinite;
                }

                @keyframes float2 {
                    0%{transform: translate(0, 0)}
                    50%{transform: translate(-5px, -5px)}
                    100%{transform: translate(0, 0)}
                }

                .triangle-float2 {
                    animation: float2 4s infinite;
                }

                @keyframes float3 {
                    0%{transform: translate(0, 0)}
                    50%{transform: translate(0, -10px)}
                    100%{transform: translate(0, 0)}
                }

                .triangle-float3 {
                    animation: float3 6s infinite;
                }
            </style></defs></svg>